<?xml version="1.0" standalone="no"?>
<!DOCTYPE svg PUBLIC "-//W3C//DTD SVG 20010904//EN"
 "http://www.w3.org/TR/2001/REC-SVG-20010904/DTD/svg10.dtd">
<svg version="1.0" xmlns="http://www.w3.org/2000/svg"
 width="1080.000000pt" height="607.000000pt" viewBox="0 0 1080.000000 607.000000"
 preserveAspectRatio="xMidYMid meet">

<g transform="translate(0.000000,607.000000) scale(0.100000,-0.100000)"
fill="#000000" stroke="none">
<path d="M0 3035 l0 -3035 5400 0 5400 0 0 3035 0 3035 -5400 0 -5400 0 0
-3035z m5607 2288 c149 -177 213 -364 200 -586 -7 -120 -25 -195 -72 -295
l-35 -73 -82 -38 c-76 -35 -215 -78 -224 -69 -2 3 25 33 59 69 113 115 174
224 213 375 55 220 14 454 -117 653 -21 31 -21 33 -3 23 11 -6 38 -32 61 -59z
m575 -213 c29 -106 29 -313 0 -422 -26 -95 -87 -226 -141 -297 -23 -30 -41
-57 -41 -60 0 -3 15 -16 33 -28 47 -32 152 -138 205 -207 62 -80 144 -246 170
-342 54 -200 41 -488 -28 -634 -12 -25 -19 -34 -16 -20 36 179 33 367 -8 517
-48 173 -140 326 -273 454 -59 56 -181 149 -197 149 -3 0 -37 -21 -77 -46 -61
-40 -121 -69 -204 -98 -15 -5 -1 -14 61 -40 83 -33 202 -103 264 -155 40 -34
43 -32 -79 -56 -88 -17 -121 -29 -121 -45 0 -5 16 -21 35 -36 47 -35 162 -173
217 -259 120 -186 193 -394 213 -611 l7 -71 -69 -67 c-125 -124 -296 -221
-470 -267 -122 -32 -330 -37 -459 -10 -613 127 -976 755 -778 1345 18 54 36
101 40 105 3 3 4 -3 0 -15 -37 -121 -48 -369 -22 -504 37 -196 134 -371 286
-520 99 -98 209 -167 338 -215 154 -58 142 -60 190 44 23 49 49 120 58 158 18
74 23 213 11 282 l-8 43 42 -33 c98 -78 234 -225 288 -313 13 -20 25 -35 28
-33 8 8 -57 159 -102 235 -176 301 -436 472 -718 472 l-90 0 -33 35 c-38 41
-74 143 -74 211 l0 44 73 0 c180 0 271 36 345 138 26 35 64 74 85 87 l39 22
-38 7 c-76 15 -207 70 -281 118 -158 103 -283 254 -344 416 -12 31 -10 29 59
-59 220 -282 600 -396 943 -284 296 98 520 357 574 664 22 122 20 197 -9 371
-10 57 52 -81 76 -170z m-1583 -961 c74 -27 181 -49 244 -49 56 0 227 -63 227
-84 0 -26 -26 -36 -98 -36 -175 0 -379 84 -519 213 -24 22 -43 43 -43 48 0 4
30 -10 68 -32 37 -22 91 -48 121 -60z m-1809 -1901 c68 -35 80 -67 80 -220 l0
-128 -135 0 -135 0 0 52 c0 64 -19 88 -70 88 -62 0 -73 -16 -68 -94 4 -68 5
-69 59 -120 30 -28 112 -100 183 -161 71 -60 138 -126 148 -145 16 -30 18 -60
18 -230 0 -228 -6 -250 -80 -288 -42 -21 -56 -22 -260 -22 -204 0 -218 1 -260
23 -66 33 -82 69 -88 193 l-5 104 142 0 141 0 0 -26 c0 -47 17 -64 62 -64 56
0 78 21 78 77 0 78 -18 101 -191 249 -187 158 -193 164 -215 220 -13 34 -15
74 -12 220 4 208 12 233 88 272 42 21 56 22 260 22 204 0 218 -1 260 -22z
m870 -78 l0 -100 -115 0 -115 0 0 -450 0 -451 -117 3 -118 3 -3 448 -2 447
-109 0 -110 0 -3 96 c-2 53 -1 98 1 100 2 2 159 4 348 4 l343 0 0 -100z m514
92 c5 -8 136 -1044 136 -1075 0 -15 -18 -17 -165 -17 l-165 0 0 100 0 100 36
0 36 0 -6 48 c-35 288 -59 460 -64 475 -4 10 -27 -141 -50 -335 -24 -194 -46
-361 -48 -370 -5 -16 -19 -18 -120 -18 -112 0 -114 0 -114 23 0 12 11 112 25
222 14 110 41 324 60 475 18 151 37 299 41 328 l7 52 193 0 c106 0 195 -4 198
-8z m745 -10 c65 -33 76 -59 76 -185 l0 -112 -117 -3 -118 -3 0 45 c0 68 -6
76 -55 76 -24 0 -47 -5 -51 -11 -8 -14 -7 -666 1 -679 9 -14 79 -12 93 2 8 8
12 52 12 134 0 113 -1 122 -20 127 -18 5 -20 14 -20 101 l0 96 140 0 140 0 -2
-332 -3 -333 -117 -3 c-101 -2 -118 0 -118 13 0 19 0 19 -39 -1 -44 -22 -201
-16 -249 10 -55 29 -62 60 -62 275 0 167 -2 197 -20 241 -11 28 -20 52 -20 54
0 2 9 6 20 9 19 5 20 14 20 199 0 296 2 298 290 298 156 0 190 -3 219 -18z
m443 -204 l3 -223 75 0 75 0 3 167 c2 147 0 172 -18 217 -11 29 -20 54 -20 56
0 3 61 5 135 5 l135 0 0 -550 0 -550 -115 0 -115 0 0 225 0 225 -80 0 -80 0 0
-225 0 -225 -115 0 -115 0 0 494 c0 472 -1 496 -20 541 -11 26 -20 51 -20 56
0 5 60 9 135 9 l135 0 2 -222z m1033 208 c19 -8 44 -30 55 -48 19 -32 20 -49
20 -489 l0 -456 -22 -33 c-37 -54 -76 -62 -288 -58 -278 5 -273 -1 -280 313
-3 149 -9 227 -17 242 -17 29 -16 43 1 43 12 0 15 36 18 204 3 188 5 207 24
233 41 56 71 63 272 63 136 0 191 -4 217 -14z m443 -438 l2 -447 118 -3 117
-3 0 -95 0 -95 -237 -3 -238 -2 0 507 c-1 422 -3 512 -15 533 -8 14 -14 33
-15 43 0 16 11 17 133 15 l132 -3 3 -447z m634 347 c16 -55 44 -152 62 -215
18 -63 37 -115 42 -115 7 0 76 220 125 398 l10 37 119 0 120 0 0 -550 0 -550
-120 0 -120 0 0 193 -1 192 -36 -93 -37 -93 -60 3 -61 3 -30 77 c-16 43 -33
78 -37 78 -5 0 -8 -81 -8 -180 l0 -181 -117 3 -118 3 -5 510 c-4 382 -8 515
-17 532 -30 51 -24 54 124 51 l136 -3 29 -100z m1163 -10 l0 -110 -137 -3
-138 -3 0 -149 0 -149 68 -3 c37 -2 66 -6 65 -10 -2 -5 -3 -55 -3 -113 l0
-105 -65 0 -65 0 0 -150 0 -150 140 0 140 0 0 -92 c0 -51 -3 -103 -6 -116 l-6
-22 -274 0 -274 0 0 594 c0 572 -1 596 -20 641 -11 26 -20 49 -20 51 0 2 134
3 298 2 l297 -3 0 -110z m-2445 -1375 c3 0 21 40 41 88 27 68 40 88 57 90 12
2 22 -2 22 -9 0 -14 -109 -280 -120 -292 -4 -4 -22 33 -40 83 -19 49 -37 90
-41 90 -4 0 -22 -40 -40 -90 -18 -49 -37 -86 -41 -82 -8 8 -118 282 -118 294
0 4 10 8 23 8 20 0 29 -13 62 -96 l38 -97 31 84 c18 46 36 93 40 104 6 16 15
0 44 -77 20 -54 39 -98 42 -98z m-3072 55 c3 -127 6 -135 55 -135 20 0 27 -5
27 -20 0 -18 -7 -20 -65 -20 l-65 0 0 143 c0 79 3 147 7 151 4 4 14 5 23 4 12
-3 15 -24 18 -123z m407 100 c0 -17 -8 -20 -57 -23 l-58 -3 0 -34 0 -35 55 0
c48 0 55 -3 55 -19 0 -17 -8 -20 -52 -23 l-53 -3 0 -45 0 -45 50 -3 c28 -2 54
-8 59 -13 21 -19 -12 -30 -85 -27 l-74 3 -3 139 c-2 105 1 142 10 148 7 4 45
7 83 6 62 -3 70 -5 70 -23z m341 -32 c14 -32 43 -97 65 -144 45 -100 47 -112
17 -107 -15 2 -28 15 -37 36 -14 31 -16 32 -78 32 -64 0 -64 0 -79 -35 -11
-27 -20 -35 -39 -35 -14 0 -25 2 -25 4 0 3 27 63 61 133 33 70 65 138 70 151
5 12 11 22 14 22 3 0 17 -26 31 -57z m449 32 c0 -14 -8 -21 -30 -25 l-30 -5
-3 -123 c-3 -121 -3 -123 -25 -120 -21 3 -22 8 -25 126 l-3 122 -29 0 c-22 0
-30 5 -30 18 0 30 10 33 95 30 72 -3 80 -5 80 -23z m213 -38 l3 -58 57 3 57 3
5 55 c4 47 8 55 25 55 19 0 20 -8 23 -147 l3 -148 -25 0 c-24 0 -25 3 -28 68
l-3 67 -55 0 -55 0 -3 -67 c-3 -65 -4 -68 -27 -68 l-25 0 0 143 c0 79 3 147 7
151 4 4 14 5 23 4 11 -2 16 -18 18 -61z m492 38 c0 -24 -3 -25 -55 -25 l-55 0
0 -35 0 -35 55 0 c48 0 55 -2 55 -20 0 -18 -7 -20 -56 -20 l-55 0 3 -47 3 -48
53 0 c47 0 52 -2 52 -22 0 -22 -4 -23 -80 -23 l-80 0 0 143 c0 79 3 147 7 150
3 4 39 7 80 7 71 0 73 -1 73 -25z m308 -10 c33 -38 25 -104 -14 -128 -21 -12
-17 -25 21 -77 19 -26 35 -50 35 -54 0 -3 -11 -6 -25 -6 -18 0 -34 14 -62 55
-21 30 -41 54 -45 55 -5 0 -8 -25 -8 -55 0 -52 -1 -55 -25 -55 l-25 0 0 143
c0 79 3 147 8 151 4 5 32 6 62 3 43 -5 60 -12 78 -32z m1382 16 c95 -51 99
-204 7 -262 -46 -29 -146 -23 -183 11 -136 126 13 339 176 251z m354 5 c58
-24 68 -118 15 -147 -26 -13 -24 -19 16 -72 41 -54 43 -67 11 -67 -17 0 -33
14 -60 56 -21 31 -40 53 -43 50 -4 -3 -7 -27 -7 -53 -1 -42 -4 -48 -23 -51
-23 -3 -23 -3 -23 141 0 79 3 147 7 150 11 12 72 8 107 -7z m284 -39 c2 -26 6
-47 10 -47 4 0 30 23 57 50 46 47 77 61 89 42 3 -5 -19 -33 -49 -62 -30 -30
-55 -60 -55 -68 0 -7 25 -43 55 -78 30 -36 55 -70 55 -75 0 -6 -12 -9 -27 -7
-19 2 -41 20 -71 58 -25 30 -49 56 -53 58 -5 2 -9 -24 -9 -57 0 -58 -1 -61
-25 -61 l-25 0 0 143 c0 79 3 147 7 151 4 4 14 5 23 4 10 -2 16 -17 18 -51z
m490 37 c42 -29 18 -64 -25 -37 -24 16 -58 10 -66 -11 -8 -19 3 -31 53 -56 57
-29 69 -46 70 -93 0 -27 -7 -45 -25 -62 -48 -49 -146 -25 -157 40 -5 30 29 31
53 1 25 -32 54 -33 74 -2 21 32 10 53 -39 74 -57 26 -76 47 -76 87 0 65 81 99
138 59z m-2116 -125 c21 -11 21 -12 -3 -25 -31 -17 -127 -17 -158 0 -23 13
-23 14 -5 24 25 15 139 15 166 1z"/>
<path d="M6126 2054 c-3 -9 -6 -161 -6 -338 0 -237 3 -325 12 -334 14 -14 84
-16 93 -2 8 13 9 666 0 679 -10 18 -92 14 -99 -5z"/>
<path d="M3814 815 c-19 -46 -19 -45 21 -45 19 0 35 2 35 4 0 10 -31 76 -36
76 -3 0 -12 -16 -20 -35z"/>
<path d="M5232 868 c2 -31 8 -44 20 -46 17 -3 58 30 58 47 0 18 -32 41 -56 41
-23 0 -25 -3 -22 -42z"/>
<path d="M6585 906 c-36 -16 -55 -52 -55 -106 0 -56 33 -90 91 -97 40 -5 50
-2 78 23 57 52 51 136 -11 174 -38 23 -61 24 -103 6z"/>
<path d="M7000 865 c0 -30 4 -45 13 -45 19 0 57 29 57 45 0 20 -28 45 -51 45
-16 0 -19 -7 -19 -45z"/>
</g>
</svg>
